<svg xmlns="http://www.w3.org/2000/svg" width="1480" height="940" viewBox="0 0 1480 940">
  <defs>
    <style>
      .title { font: 700 31px Arial, sans-serif; fill: #102a43; }
      .subtitle { font: 500 16px Arial, sans-serif; fill: #334e68; }
      .section { font: 700 18px Arial, sans-serif; fill: #102a43; }
      .label { font: 700 14px Arial, sans-serif; fill: #102a43; }
      .text { font: 12px Arial, sans-serif; fill: #243b53; }
      .small { font: 11px Arial, sans-serif; fill: #486581; }
      .mono { font: 12px "Courier New", monospace; fill: #1f2933; }
    </style>
    <marker id="arrow" markerWidth="12" markerHeight="12" refX="10" refY="4" orient="auto" markerUnits="strokeWidth">
      <path d="M0,0 L11,4 L0,8 z" fill="#334e68"/>
    </marker>
    <marker id="arrowGreen" markerWidth="12" markerHeight="12" refX="10" refY="4" orient="auto" markerUnits="strokeWidth">
      <path d="M0,0 L11,4 L0,8 z" fill="#12734a"/>
    </marker>
  </defs>

  <rect x="0" y="0" width="1480" height="940" fill="#f7fafc"/>
  <text x="40" y="54" class="title">RelBench rel-avito in DuckDB with User Clicks Target</text>
  <text x="40" y="82" class="subtitle">User parent node, visit labels enriched by search clicks, and 5-day GraphReduce label window for 4-day task behavior.</text>

  <rect x="34" y="112" width="560" height="600" rx="14" fill="#ffffff" stroke="#9fb3c8" stroke-width="1.5"/>
  <text x="54" y="142" class="section">1) Graph Model and Node Roles</text>

  <rect x="210" y="176" width="210" height="126" rx="10" fill="#e7f0ff" stroke="#486581"/>
  <text x="226" y="200" class="label">Parent: UserInfo.parquet</text>
  <text x="226" y="220" class="text">prefix: usr, pk: UserID</text>
  <text x="226" y="238" class="text">prediction grain: one row per user</text>
  <text x="226" y="256" class="text">active-user filter before cut</text>
  <text x="226" y="274" class="mono">exists(visit before 2015-05-14)</text>

  <rect x="70" y="352" width="210" height="126" rx="10" fill="#e8fff1" stroke="#486581"/>
  <text x="86" y="376" class="label">VisitsStream.parquet</text>
  <text x="86" y="394" class="text">prefix: vis, label node</text>
  <text x="86" y="412" class="text">visit-level labels at user grain</text>
  <text x="86" y="430" class="mono">vis_clicked_*_label</text>

  <rect x="350" y="352" width="210" height="126" rx="10" fill="#eef2ff" stroke="#486581"/>
  <text x="366" y="376" class="label">AdsInfo.parquet</text>
  <text x="366" y="394" class="text">prefix: ad, pk: AdID</text>
  <text x="366" y="412" class="text">ad context propagated via visits</text>

  <rect x="210" y="510" width="210" height="126" rx="10" fill="#fff6df" stroke="#486581"/>
  <text x="226" y="534" class="label">SearchInfo.parquet</text>
  <text x="226" y="552" class="text">prefix: sea</text>
  <text x="226" y="570" class="text">provides IsClick signal</text>
  <text x="226" y="588" class="mono">vis_is_clicked annotation</text>

  <line x1="260" y1="302" x2="175" y2="352" stroke="#334e68" stroke-width="2.1" marker-end="url(#arrow)"/>
  <line x1="370" y1="302" x2="455" y2="352" stroke="#334e68" stroke-width="2.1" marker-end="url(#arrow)"/>
  <line x1="315" y1="478" x2="315" y2="510" stroke="#334e68" stroke-width="2.1" marker-end="url(#arrow)"/>

  <rect x="620" y="112" width="390" height="260" rx="14" fill="#ffffff" stroke="#9fb3c8" stroke-width="1.5"/>
  <text x="640" y="142" class="section">2) Time and Label Configuration</text>
  <rect x="646" y="168" width="340" height="46" rx="8" fill="#f0f4f8" stroke="#9fb3c8"/>
  <text x="662" y="196" class="mono">cut_date = 2015-05-14</text>
  <rect x="646" y="224" width="340" height="50" rx="8" fill="#e6fffa" stroke="#2c7a7b"/>
  <text x="662" y="244" class="label">X window: 2015-04-25 to cut_date</text>
  <text x="662" y="262" class="mono">LOOKBACK_DAYS = 20 (inclusive start)</text>
  <rect x="646" y="284" width="340" height="50" rx="8" fill="#fffaf0" stroke="#b7791f"/>
  <text x="662" y="304" class="label">y window: 5-day GraphReduce label period</text>
  <text x="662" y="322" class="mono">task intent: clicked ad visit in next 4 days</text>

  <rect x="620" y="392" width="390" height="320" rx="14" fill="#ffffff" stroke="#9fb3c8" stroke-width="1.5"/>
  <text x="640" y="422" class="section">3) Compute Graph Pipeline in DuckDB</text>
  <text x="640" y="450" class="text">A) Download 7 rel-avito parquet files from S3.</text>
  <text x="640" y="474" class="text">B) Build User/Visits/Ads (+ optional Search) DuckdbNodes.</text>
  <text x="640" y="498" class="text">C) Annotate visits with `vis_is_clicked` via SearchInfo.</text>
  <text x="640" y="522" class="text">D) Run `gr.do_transformations_sql()` with auto labels.</text>
  <text x="640" y="546" class="text">E) Train RandomForest on user_clicked_next_4d.</text>
  <rect x="642" y="566" width="346" height="124" rx="8" fill="#edf2f7" stroke="#a0aec0"/>
  <text x="658" y="592" class="mono">target = sum(vis_clicked_*_label) &gt; 0</text>
  <text x="658" y="614" class="mono">out_df at user grain</text>
  <text x="658" y="636" class="mono">X = numeric non-label features</text>
  <text x="658" y="658" class="mono">score = ROC AUC</text>

  <rect x="1040" y="112" width="408" height="600" rx="14" fill="#ffffff" stroke="#9fb3c8" stroke-width="1.5"/>
  <text x="1060" y="142" class="section">4) Output at Parent Grain and Why This Setup</text>
  <rect x="1062" y="170" width="364" height="262" rx="10" fill="#f8fafc" stroke="#829ab1"/>
  <text x="1080" y="198" class="label">Output columns (user grain)</text>
  <text x="1080" y="224" class="mono">usr_* parent features</text>
  <text x="1080" y="248" class="mono">vis_* visit aggregates</text>
  <text x="1080" y="272" class="mono">ad_* propagated ad features</text>
  <text x="1080" y="296" class="mono">vis_clicked_*_label columns</text>
  <text x="1080" y="320" class="mono">user_clicked_next_4d target</text>

  <rect x="1062" y="450" width="364" height="240" rx="10" fill="#e7fff5" stroke="#2f855a"/>
  <text x="1080" y="478" class="label">Why this setup</text>
  <text x="1080" y="504" class="text">Directly encodes click intent at user level.</text>
  <text x="1080" y="528" class="text">SearchInfo contributes weak supervision for clicks.</text>
  <text x="1080" y="552" class="text">Visit + ad context improves signal richness.</text>
  <text x="1080" y="576" class="text">Matches task requirement with 5-day label workaround.</text>
  <text x="1080" y="610" class="mono">graphreduce + duckdb => train-ready output</text>

  <line x1="594" y1="430" x2="620" y2="450" stroke="#334e68" stroke-width="2.2" marker-end="url(#arrow)"/>
  <line x1="1010" y1="560" x2="1040" y2="560" stroke="#12734a" stroke-width="2.6" marker-end="url(#arrowGreen)"/>

  <text x="40" y="908" class="small">Specific to rel-avito user-clicks task with click-supervised labels derived from SearchInfo and VisitsStream.</text>
</svg>
